Coordinates
version=1
nRows=9
nColumns=36
inDegrees=yes

Units are S.I. units (second, meters, Newtons, ...)
If the header above contains a line with 'inDegrees', this indicates whether rotational values are in degrees (yes) or radians (no).

endheader
time	pelvis_tilt	pelvis_list	pelvis_rotation	pelvis_tx	pelvis_ty	pelvis_tz	hip_flexion_r	hip_adduction_r	hip_rotation_r	knee_angle_r	knee_angle_r_beta	ankle_angle_r	subtalar_angle_r	mtp_angle_r	hip_flexion_l	hip_adduction_l	hip_rotation_l	knee_angle_l	knee_angle_l_beta	ankle_angle_l	subtalar_angle_l	mtp_angle_l	lumbar_extension	lumbar_bending	lumbar_rotation	arm_flex_r	arm_add_r	arm_rot_r	elbow_flex_r	pro_sup_r	arm_flex_l	arm_add_l	arm_rot_l	elbow_flex_l	pro_sup_l
     14.88333330	      4.05923123	     -5.25152552	     -2.42938400	      0.71544056	      1.03691159	      0.73825241	     14.04857687	      6.72510675	      0.14921733	     16.24373820	      0.28350671	      1.39254572	     -7.26391082	     -7.49999987	     -3.03239850	    -10.04353012	     -1.50754065	     46.64637770	      0.81413288	     -0.12857225	     -5.25338562	     -7.49999987	    -13.65294228	      6.48784586	      4.41609147	      3.63656393	    -17.31843079	      2.67151155	     21.14481957	     91.76646646	     13.05612132	    -12.14450175	     12.04616190	     27.50256438	     90.65321443
     14.90000000	      4.23012369	     -5.97365763	     -2.23304344	      0.71365547	      1.03908551	      0.73993884	     12.57308764	      7.71347508	      0.51635032	     16.10182437	      0.28102985	      2.46394235	     -8.05775192	     -7.49999987	     -0.79645496	    -11.14982859	     -0.81064790	     51.85374943	      0.90501866	     -3.63281259	     -6.37320505	     -7.49999987	    -13.82034268	      7.52239495	      4.97405213	      3.74360323	    -17.74284233	      2.88188609	     22.20322410	     93.44683027	     12.13426964	    -11.43021592	     10.59659533	     27.16921197	     94.40567441
     14.91666670	      4.54201817	     -6.50317569	     -2.05880441	      0.71232198	      1.03920942	      0.74273691	     10.81383662	      8.47860939	      0.75259845	     15.56128964	      0.27159574	      3.40431715	     -8.39690218	     -7.49999987	      1.34070498	    -11.85104377	     -0.07183790	     56.60350677	      0.98791756	     -5.97871258	     -7.30374076	     -7.49999987	    -14.19073170	      8.28610337	      5.60903777	      4.21904042	    -18.02197040	      2.92042070	     22.77148415	     93.33981944	     11.38020878	    -10.97324894	     10.59411778	     26.94161582	     94.29715124
     14.93333330	      4.77443826	     -6.77607554	     -1.88226915	      0.71187236	      1.03897382	      0.74620074	      9.08068618	      8.97979636	      0.99264205	     14.84626785	      0.25911626	      4.23089462	     -8.51076127	     -7.49999987	      3.53308594	    -12.07658042	      0.68939768	     60.65070519	      1.05855450	     -7.13423150	     -8.10958698	     -7.49999987	    -14.52458297	      8.71821645	      6.17733038	      4.71732991	    -18.25972684	      3.01237635	     23.53633441	     93.22464653	     10.68737909	    -10.61933008	     10.60397676	     26.68547993	     94.19303611
     14.95000000	      4.79866591	     -6.79070532	     -1.65965937	      0.71190682	      1.04011464	      0.74869434	      7.45018963	      9.17596502	      1.10181546	     13.91545943	      0.24287058	      4.97507894	     -8.10806654	     -7.49999987	      5.86588077	    -11.82950384	      1.47767722	     63.77991010	      1.11316943	     -6.97295404	     -8.57598057	     -7.49999987	    -14.70694537	      8.85441306	      6.70053082	      4.61408447	    -18.71037638	      3.67704358	     25.57230241	     93.03984336	     10.16537861	    -10.26794820	     10.56557966	     26.13361052	     94.21811984
     14.96666670	      5.13836001	     -6.58401452	     -1.45246540	      0.71080150	      1.04263367	      0.75054388	      5.40597769	      9.14528717	      1.50782102	     12.86050188	      0.22445810	      5.48394681	     -7.87065246	     -7.49999987	      7.67334425	    -11.24086357	      2.02987790	     65.75275780	      1.14760212	     -5.67401453	     -8.60261790	     -7.49999987	    -15.30710413	      8.66416545	      7.01237144	      5.12051813	    -18.83267325	      4.01474636	     26.61564063	     91.48543702	      9.56674396	    -10.12311703	     10.58040920	     26.01131637	     93.06795536
     14.98333330	      5.27175537	     -6.21200642	     -1.29117427	      0.70740611	      1.04414297	      0.75284089	      3.68415069	      8.89082311	      1.72907171	     11.94840834	      0.20853907	      6.24462609	     -7.00521572	     -7.49999987	      9.62288313	    -10.39947749	      2.45827415	     66.72178038	      1.16451475	     -3.68601856	     -8.45683850	     -7.49999987	    -15.65680221	      8.26359184	      7.39498969	      5.64564902	    -19.15597574	      5.47566259	     27.41164323	     90.81178348	      9.42202127	    -10.26069376	     12.42389368	     25.18630667	     93.49473528
     15.00000000	      5.22200739	     -5.68688008	     -1.32881858	      0.70134385	      1.04376886	      0.75619799	      2.30583587	      8.49826203	      2.26327551	     11.20224739	      0.19551610	      6.82932399	     -6.64842804	     -7.49999987	     11.67687926	     -9.42181576	      2.60179412	     66.86463566	      1.16700805	     -1.76320022	     -8.76525555	     -7.49999987	    -15.92725631	      7.59151786	      7.69731951	      6.35015876	    -19.07657162	      5.50938566	     27.97832502	     90.74257464	      8.97211978	    -10.35385716	     12.53761937	     25.01982718	     93.47745984
     15.01666670	      5.17676877	     -5.16100485	     -1.33087339	      0.69412025	      1.04347162	      0.76005200	      1.03414458	      8.08812657	      2.51972033	     10.53834651	      0.18392884	      7.63050807	     -5.97237964	     -7.49999987	     13.72488784	     -8.62156386	      2.53315621	     66.48206216	      1.16033088	      0.40023766	     -8.22458447	     -7.49999987	    -16.25697635	      6.89361646	      7.49567718	      7.25580274	    -18.92310697	      5.77800242	     29.09656621	     90.68248483	      8.40946269	    -10.68714219	     12.83942150	     24.74655087	     93.53769164
